<svg width="202" height="54" viewBox="0 0 202 54" fill="none" xmlns="http://www.w3.org/2000/svg">
<g clip-path="url(#clip0_1147_10153)">
<path d="M45.1074 11.5508H55.9717L61.8801 31.8816H62.0135L67.8491 11.5508H78.7741L68.3283 42.4462H55.7291L45.1074 11.5508Z" fill="white"/>
<path d="M94.1641 18.5898C96.5906 18.5898 98.2223 20.693 98.2223 23.0278H89.2142C89.7481 20.7479 91.1796 18.5898 94.1641 18.5898ZM104.61 31.3918C104.61 31.3918 100.552 34.513 96.1174 34.513C92.8357 34.513 89.7299 32.7695 88.9534 29.0265H108.365C108.365 29.0265 108.607 26.8014 108.607 25.7833C108.607 17.206 103.469 10.8477 94.4007 10.8477C84.4888 10.8477 78.3984 17.9253 78.3984 26.9843C78.3984 35.2019 84.3129 43.1818 95.2925 43.1818C99.6 43.1983 103.813 41.911 107.382 39.4875L104.61 31.3918Z" fill="white"/>
<path d="M112.332 11.5445H122.123V17.7687H122.238C123.554 13.5685 127.43 11.002 132.029 11.002C132.436 11.0067 132.842 11.0475 133.242 11.1239V21.2984C132.552 21.1696 131.851 21.1084 131.149 21.1155C128.723 21.1155 124.707 21.8958 123.215 26.5167C122.824 27.8813 122.642 29.2975 122.675 30.717V42.4156H112.362L112.332 11.5445Z" fill="white"/>
<path d="M139.314 31.6114C139.314 31.6114 142.717 34.7266 147.133 34.7266C148.686 34.7266 150.166 34.3059 150.166 33.2879C150.166 30.5873 135.783 30.2886 135.783 20.2116C135.783 14.3897 141.334 10.793 148.437 10.793C155.541 10.793 159.241 14.3288 159.241 14.3288L155.717 21.7112C153.621 20.1094 151.07 19.2268 148.437 19.1935C146.884 19.1935 145.404 19.608 145.404 20.6932C145.404 23.028 159.793 23.3877 159.793 33.3489C159.793 38.6281 155.134 43.1027 147.194 43.1027C142.682 43.1471 138.31 41.5343 134.898 38.5672L139.314 31.6114Z" fill="white"/>
<path d="M177.027 18.5898C179.453 18.5898 181.085 20.693 181.085 23.0278H172.071C172.611 20.7479 174.042 18.5898 177.027 18.5898ZM187.473 31.3918C187.473 31.3918 183.414 34.513 178.98 34.513C175.692 34.513 172.593 32.7695 171.816 29.0265H191.228C191.228 29.0265 191.464 26.8014 191.464 25.7833C191.464 17.206 186.332 10.8477 177.257 10.8477C167.352 10.8477 161.261 17.9253 161.261 26.9843C161.261 35.2019 167.17 43.1818 178.155 43.1818C182.461 43.1997 186.672 41.9122 190.239 39.4875L187.473 31.3918Z" fill="white"/>
<path d="M10.3002 11.5508H0V42.4462H10.3002V11.5508Z" fill="white"/>
<path d="M26.1387 34.192H24.6343V19.805H26.1387C29.8875 19.805 33.1025 22.6154 33.1025 27.0839C33.1429 28.0188 32.9912 28.9521 32.657 29.8255C32.3227 30.699 31.813 31.4939 31.1597 32.1608C30.5064 32.8276 29.7234 33.3521 28.8596 33.7016C27.9957 34.0511 27.0695 34.218 26.1387 34.192ZM26.1387 11.5508H14.3584V42.4462H26.169C35.8141 42.4462 43.5544 36.3135 43.5544 27.0839C43.5544 17.8542 35.8444 11.5813 26.1387 11.5813" fill="white"/>
<path d="M59.7022 54L41.134 0H37.6521L56.2264 54H59.7022Z" fill="#FF6B6B"/>
<path d="M196.364 11.5508V12.3067H194.866V16.0498H193.926V12.3067H192.421V11.5508H196.364Z" fill="white"/>
<path d="M202 11.5508V16.0498H201.157V13.7027L201.2 12.386H201.188L199.944 16.0498H199.18L197.942 12.386H197.93L197.979 13.7027V16.0498H197.129V11.5508H198.488L199.295 14.0075L199.58 15.0195H199.592L199.883 14.0136L200.684 11.5508H202Z" fill="white"/>
</g>
<defs>
<clipPath id="clip0_1147_10153">
<rect width="202" height="54" fill="white"/>
</clipPath>
</defs>
</svg>