<svg width="118" height="57" viewBox="0 0 118 57" fill="none" xmlns="http://www.w3.org/2000/svg">
<path d="M113.34 56.8201H46.2676C44.1068 56.8201 42.3533 55.157 42.3533 53.104V13.7742C42.3533 11.7228 44.1051 10.0581 46.2676 10.0581H113.34C115.501 10.0581 117.255 11.7212 117.255 13.7742V53.1056C117.253 55.157 115.501 56.8201 113.34 56.8201Z" fill="white"/>
<path d="M113.341 57H46.268C44.0049 57 42.1658 55.2526 42.1658 53.1057V13.7743C42.1658 11.6258 44.0065 9.88 46.268 9.88H113.341C115.604 9.88 117.443 11.6274 117.443 13.7743V53.1057C117.443 55.2526 115.602 57 113.341 57ZM46.2663 10.2381C44.2127 10.2381 42.5414 11.8248 42.5414 13.7743V53.1057C42.5414 55.0552 44.2127 56.6419 46.2663 56.6419H113.339C115.393 56.6419 117.064 55.0552 117.064 53.1057V13.7743C117.064 11.8248 115.393 10.2381 113.339 10.2381H46.2663Z" fill="#D3D9DF"/>
<path d="M52.2283 45.8464H50.1358V51.7491H52.2283V45.8464Z" fill="url(#paint0_linear_1147_10151)"/>
<path d="M73.9191 45.8464H71.8267V51.7491H73.9191V45.8464Z" fill="url(#paint1_linear_1147_10151)"/>
<path d="M56.4725 45.8464H53.1688V51.7491H56.4725V45.8464Z" fill="url(#paint2_linear_1147_10151)"/>
<path d="M59.0728 45.8464H57.4195V51.7491H59.0728V45.8464Z" fill="url(#paint3_linear_1147_10151)"/>
<path d="M76.1297 45.8464H74.4765V51.7491H76.1297V45.8464Z" fill="url(#paint4_linear_1147_10151)"/>
<path d="M79.0217 45.8464H77.3684V51.7491H79.0217V45.8464Z" fill="url(#paint5_linear_1147_10151)"/>
<path d="M60.5815 45.8464H59.7549V51.7491H60.5815V45.8464Z" fill="url(#paint6_linear_1147_10151)"/>
<path d="M80.5207 45.8464H79.6941V51.7491H80.5207V45.8464Z" fill="url(#paint7_linear_1147_10151)"/>
<path d="M67.872 45.8464H67.0453V51.7491H67.872V45.8464Z" fill="url(#paint8_linear_1147_10151)"/>
<path d="M66.3328 45.8464H65.5062V51.7491H66.3328V45.8464Z" fill="url(#paint9_linear_1147_10151)"/>
<path d="M64.8819 45.8464H61.128V51.7491H64.8819V45.8464Z" fill="url(#paint10_linear_1147_10151)"/>
<path d="M70.7275 45.8464H68.6623V51.7491H70.7275V45.8464Z" fill="url(#paint11_linear_1147_10151)"/>
<path d="M83.2732 45.8464H81.1808V51.7491H83.2732V45.8464Z" fill="url(#paint12_linear_1147_10151)"/>
<path d="M104.964 45.8464H102.872V51.7491H104.964V45.8464Z" fill="url(#paint13_linear_1147_10151)"/>
<path d="M84.5959 45.8464H83.7938V51.7491H84.5959V45.8464Z" fill="url(#paint14_linear_1147_10151)"/>
<path d="M86.104 45.8464H85.3019V51.7491H86.104V45.8464Z" fill="url(#paint15_linear_1147_10151)"/>
<path d="M87.526 45.8464H86.7239V51.7491H87.526V45.8464Z" fill="url(#paint16_linear_1147_10151)"/>
<path d="M90.1166 45.8464H88.4634V51.7491H90.1166V45.8464Z" fill="url(#paint17_linear_1147_10151)"/>
<path d="M107.183 45.8464H105.53V51.7491H107.183V45.8464Z" fill="url(#paint18_linear_1147_10151)"/>
<path d="M110.065 45.8464H108.412V51.7491H110.065V45.8464Z" fill="url(#paint19_linear_1147_10151)"/>
<path d="M91.6228 45.8464H90.7962V51.7491H91.6228V45.8464Z" fill="url(#paint20_linear_1147_10151)"/>
<path d="M111.575 45.8464H110.748V51.7491H111.575V45.8464Z" fill="url(#paint21_linear_1147_10151)"/>
<path d="M98.9172 45.8464H98.0906V51.7491H98.9172V45.8464Z" fill="url(#paint22_linear_1147_10151)"/>
<path d="M97.3738 45.8464H96.5472V51.7491H97.3738V45.8464Z" fill="url(#paint23_linear_1147_10151)"/>
<path d="M95.9286 45.8464H92.1747V51.7491H95.9286V45.8464Z" fill="url(#paint24_linear_1147_10151)"/>
<path d="M101.769 45.8464H99.704V51.7491H101.769V45.8464Z" fill="url(#paint25_linear_1147_10151)"/>
<rect x="49.404" y="17.8555" width="61.5254" height="9.40976" rx="3" fill="#00C4B3"/>
<rect x="49.404" y="40.2919" width="15.2004" height="2.89531" rx="1.44766" fill="url(#paint26_linear_1147_10151)"/>
<rect x="68.2233" y="40.2919" width="15.2004" height="2.89531" rx="1.44766" fill="url(#paint27_linear_1147_10151)"/>
<rect x="85.5953" y="40.2919" width="26.0578" height="2.89531" rx="1.44766" fill="url(#paint28_linear_1147_10151)"/>
<rect x="0.5" y="0.5" width="74" height="46" rx="3.91369" fill="white"/>
<rect x="0.5" y="0.5" width="74" height="46" rx="3.91369" stroke="url(#paint29_linear_1147_10151)"/>
<path d="M6.28403 31.4045C6.28403 26.8844 9.9483 23.2202 14.4684 23.2202H20.5407C25.0609 23.2202 28.7251 26.8844 28.7251 31.4045V38.3994H6.28403V31.4045Z" fill="#00C4B3"/>
<ellipse cx="17.9538" cy="14.2914" rx="6.28351" ry="6.25026" fill="#00C4B3"/>
<rect x="32.3157" y="16.0748" width="24.2364" height="2.67868" rx="1.33934" fill="url(#paint30_linear_1147_10151)"/>
<rect x="32.3157" y="8.93242" width="36.8034" height="2.67868" rx="1.33934" fill="url(#paint31_linear_1147_10151)"/>
<rect x="32.3157" y="23.2187" width="36.8034" height="2.67868" rx="1.33934" fill="url(#paint32_linear_1147_10151)"/>
<path d="M33.5851 32.2636H32.3179V38.1449H33.5851V32.2636Z" fill="url(#paint33_linear_1147_10151)"/>
<path d="M46.723 32.2636H45.4558V38.1449H46.723V32.2636Z" fill="url(#paint34_linear_1147_10151)"/>
<path d="M36.1559 32.2636H34.1553V38.1449H36.1559V32.2636Z" fill="url(#paint35_linear_1147_10151)"/>
<path d="M37.7313 32.2636H36.7302V38.1449H37.7313V32.2636Z" fill="url(#paint36_linear_1147_10151)"/>
<path d="M48.0596 32.2636H47.0584V38.1449H48.0596V32.2636Z" fill="url(#paint37_linear_1147_10151)"/>
<path d="M49.8099 32.2636H48.8088V38.1449H49.8099V32.2636Z" fill="url(#paint38_linear_1147_10151)"/>
<path d="M38.6428 32.2636H38.1423V38.1449H38.6428V32.2636Z" fill="url(#paint39_linear_1147_10151)"/>
<path d="M50.7181 32.2636H50.2176V38.1449H50.7181V32.2636Z" fill="url(#paint40_linear_1147_10151)"/>
<path d="M43.0572 32.2636H42.5566V38.1449H43.0572V32.2636Z" fill="url(#paint41_linear_1147_10151)"/>
<path d="M42.1273 32.2636H41.6267V38.1449H42.1273V32.2636Z" fill="url(#paint42_linear_1147_10151)"/>
<path d="M41.2494 32.2636H38.9761V38.1449H41.2494V32.2636Z" fill="url(#paint43_linear_1147_10151)"/>
<path d="M44.7906 32.2636H43.54V38.1449H44.7906V32.2636Z" fill="url(#paint44_linear_1147_10151)"/>
<path d="M52.3839 32.2636H51.1168V38.1449H52.3839V32.2636Z" fill="url(#paint45_linear_1147_10151)"/>
<path d="M65.519 32.2636H64.2519V38.1449H65.519V32.2636Z" fill="url(#paint46_linear_1147_10151)"/>
<path d="M53.1857 32.2636H52.7V38.1449H53.1857V32.2636Z" fill="url(#paint47_linear_1147_10151)"/>
<path d="M54.1 32.2636H53.6143V38.1449H54.1V32.2636Z" fill="url(#paint48_linear_1147_10151)"/>
<path d="M54.959 32.2636H54.4733V38.1449H54.959V32.2636Z" fill="url(#paint49_linear_1147_10151)"/>
<path d="M56.5299 32.2636H55.5288V38.1449H56.5299V32.2636Z" fill="url(#paint50_linear_1147_10151)"/>
<path d="M66.8623 32.2636H65.8611V38.1449H66.8623V32.2636Z" fill="url(#paint51_linear_1147_10151)"/>
<path d="M68.6095 32.2636H67.6084V38.1449H68.6095V32.2636Z" fill="url(#paint52_linear_1147_10151)"/>
<path d="M57.4434 32.2636H56.9428V38.1449H57.4434V32.2636Z" fill="url(#paint53_linear_1147_10151)"/>
<path d="M69.5242 32.2636H69.0236V38.1449H69.5242V32.2636Z" fill="url(#paint54_linear_1147_10151)"/>
<path d="M61.8575 32.2636H61.357V38.1449H61.8575V32.2636Z" fill="url(#paint55_linear_1147_10151)"/>
<path d="M60.924 32.2636H60.4234V38.1449H60.924V32.2636Z" fill="url(#paint56_linear_1147_10151)"/>
<path d="M60.0471 32.2636H57.7738V38.1449H60.0471V32.2636Z" fill="url(#paint57_linear_1147_10151)"/>
<path d="M63.5885 32.2636H62.3379V38.1449H63.5885V32.2636Z" fill="url(#paint58_linear_1147_10151)"/>
<defs>
<linearGradient id="paint0_linear_1147_10151" x1="51.8351" y1="47.5506" x2="49.9921" y2="47.935" gradientUnits="userSpaceOnUse">
<stop stop-color="#051C2C"/>
<stop offset="1" stop-color="#051C2C" stop-opacity="0.8"/>
</linearGradient>
<linearGradient id="paint1_linear_1147_10151" x1="73.5259" y1="47.5506" x2="71.6829" y2="47.935" gradientUnits="userSpaceOnUse">
<stop stop-color="#051C2C"/>
<stop offset="1" stop-color="#051C2C" stop-opacity="0.8"/>
</linearGradient>
<linearGradient id="paint2_linear_1147_10151" x1="55.8517" y1="47.5506" x2="53.1124" y2="48.4528" gradientUnits="userSpaceOnUse">
<stop stop-color="#051C2C"/>
<stop offset="1" stop-color="#051C2C" stop-opacity="0.8"/>
</linearGradient>
<linearGradient id="paint3_linear_1147_10151" x1="58.7621" y1="47.5506" x2="57.2828" y2="47.7944" gradientUnits="userSpaceOnUse">
<stop stop-color="#051C2C"/>
<stop offset="1" stop-color="#051C2C" stop-opacity="0.8"/>
</linearGradient>
<linearGradient id="paint4_linear_1147_10151" x1="75.8191" y1="47.5506" x2="74.3398" y2="47.7944" gradientUnits="userSpaceOnUse">
<stop stop-color="#051C2C"/>
<stop offset="1" stop-color="#051C2C" stop-opacity="0.8"/>
</linearGradient>
<linearGradient id="paint5_linear_1147_10151" x1="78.711" y1="47.5506" x2="77.2317" y2="47.7944" gradientUnits="userSpaceOnUse">
<stop stop-color="#051C2C"/>
<stop offset="1" stop-color="#051C2C" stop-opacity="0.8"/>
</linearGradient>
<linearGradient id="paint6_linear_1147_10151" x1="60.4261" y1="47.5506" x2="59.6715" y2="47.6128" gradientUnits="userSpaceOnUse">
<stop stop-color="#051C2C"/>
<stop offset="1" stop-color="#051C2C" stop-opacity="0.8"/>
</linearGradient>
<linearGradient id="paint7_linear_1147_10151" x1="80.3654" y1="47.5506" x2="79.6108" y2="47.6128" gradientUnits="userSpaceOnUse">
<stop stop-color="#051C2C"/>
<stop offset="1" stop-color="#051C2C" stop-opacity="0.8"/>
</linearGradient>
<linearGradient id="paint8_linear_1147_10151" x1="67.7166" y1="47.5506" x2="66.962" y2="47.6128" gradientUnits="userSpaceOnUse">
<stop stop-color="#051C2C"/>
<stop offset="1" stop-color="#051C2C" stop-opacity="0.8"/>
</linearGradient>
<linearGradient id="paint9_linear_1147_10151" x1="66.1775" y1="47.5506" x2="65.4229" y2="47.6128" gradientUnits="userSpaceOnUse">
<stop stop-color="#051C2C"/>
<stop offset="1" stop-color="#051C2C" stop-opacity="0.8"/>
</linearGradient>
<linearGradient id="paint10_linear_1147_10151" x1="64.1765" y1="47.5506" x2="61.1502" y2="48.6832" gradientUnits="userSpaceOnUse">
<stop stop-color="#051C2C"/>
<stop offset="1" stop-color="#051C2C" stop-opacity="0.8"/>
</linearGradient>
<linearGradient id="paint11_linear_1147_10151" x1="70.3394" y1="47.5506" x2="68.5185" y2="47.9255" gradientUnits="userSpaceOnUse">
<stop stop-color="#051C2C"/>
<stop offset="1" stop-color="#051C2C" stop-opacity="0.8"/>
</linearGradient>
<linearGradient id="paint12_linear_1147_10151" x1="82.88" y1="47.5506" x2="81.037" y2="47.935" gradientUnits="userSpaceOnUse">
<stop stop-color="#051C2C"/>
<stop offset="1" stop-color="#051C2C" stop-opacity="0.8"/>
</linearGradient>
<linearGradient id="paint13_linear_1147_10151" x1="104.571" y1="47.5506" x2="102.728" y2="47.935" gradientUnits="userSpaceOnUse">
<stop stop-color="#051C2C"/>
<stop offset="1" stop-color="#051C2C" stop-opacity="0.8"/>
</linearGradient>
<linearGradient id="paint14_linear_1147_10151" x1="84.4452" y1="47.5506" x2="83.7127" y2="47.6091" gradientUnits="userSpaceOnUse">
<stop stop-color="#051C2C"/>
<stop offset="1" stop-color="#051C2C" stop-opacity="0.8"/>
</linearGradient>
<linearGradient id="paint15_linear_1147_10151" x1="85.9533" y1="47.5506" x2="85.2208" y2="47.6091" gradientUnits="userSpaceOnUse">
<stop stop-color="#051C2C"/>
<stop offset="1" stop-color="#051C2C" stop-opacity="0.8"/>
</linearGradient>
<linearGradient id="paint16_linear_1147_10151" x1="87.3753" y1="47.5506" x2="86.6428" y2="47.6091" gradientUnits="userSpaceOnUse">
<stop stop-color="#051C2C"/>
<stop offset="1" stop-color="#051C2C" stop-opacity="0.8"/>
</linearGradient>
<linearGradient id="paint17_linear_1147_10151" x1="89.806" y1="47.5506" x2="88.3267" y2="47.7944" gradientUnits="userSpaceOnUse">
<stop stop-color="#051C2C"/>
<stop offset="1" stop-color="#051C2C" stop-opacity="0.8"/>
</linearGradient>
<linearGradient id="paint18_linear_1147_10151" x1="106.873" y1="47.5506" x2="105.393" y2="47.7944" gradientUnits="userSpaceOnUse">
<stop stop-color="#051C2C"/>
<stop offset="1" stop-color="#051C2C" stop-opacity="0.8"/>
</linearGradient>
<linearGradient id="paint19_linear_1147_10151" x1="109.755" y1="47.5506" x2="108.275" y2="47.7944" gradientUnits="userSpaceOnUse">
<stop stop-color="#051C2C"/>
<stop offset="1" stop-color="#051C2C" stop-opacity="0.8"/>
</linearGradient>
<linearGradient id="paint20_linear_1147_10151" x1="91.4675" y1="47.5506" x2="90.7129" y2="47.6128" gradientUnits="userSpaceOnUse">
<stop stop-color="#051C2C"/>
<stop offset="1" stop-color="#051C2C" stop-opacity="0.8"/>
</linearGradient>
<linearGradient id="paint21_linear_1147_10151" x1="111.419" y1="47.5506" x2="110.665" y2="47.6128" gradientUnits="userSpaceOnUse">
<stop stop-color="#051C2C"/>
<stop offset="1" stop-color="#051C2C" stop-opacity="0.8"/>
</linearGradient>
<linearGradient id="paint22_linear_1147_10151" x1="98.7619" y1="47.5506" x2="98.0073" y2="47.6128" gradientUnits="userSpaceOnUse">
<stop stop-color="#051C2C"/>
<stop offset="1" stop-color="#051C2C" stop-opacity="0.8"/>
</linearGradient>
<linearGradient id="paint23_linear_1147_10151" x1="97.2185" y1="47.5506" x2="96.4639" y2="47.6128" gradientUnits="userSpaceOnUse">
<stop stop-color="#051C2C"/>
<stop offset="1" stop-color="#051C2C" stop-opacity="0.8"/>
</linearGradient>
<linearGradient id="paint24_linear_1147_10151" x1="95.2232" y1="47.5506" x2="92.1969" y2="48.6832" gradientUnits="userSpaceOnUse">
<stop stop-color="#051C2C"/>
<stop offset="1" stop-color="#051C2C" stop-opacity="0.8"/>
</linearGradient>
<linearGradient id="paint25_linear_1147_10151" x1="101.381" y1="47.5506" x2="99.5602" y2="47.9255" gradientUnits="userSpaceOnUse">
<stop stop-color="#051C2C"/>
<stop offset="1" stop-color="#051C2C" stop-opacity="0.8"/>
</linearGradient>
<linearGradient id="paint26_linear_1147_10151" x1="61.7481" y1="41.1278" x2="60.4233" y2="45.2209" gradientUnits="userSpaceOnUse">
<stop stop-color="#051C2C"/>
<stop offset="1" stop-color="#051C2C" stop-opacity="0.8"/>
</linearGradient>
<linearGradient id="paint27_linear_1147_10151" x1="80.5674" y1="41.1278" x2="79.2426" y2="45.2209" gradientUnits="userSpaceOnUse">
<stop stop-color="#051C2C"/>
<stop offset="1" stop-color="#051C2C" stop-opacity="0.8"/>
</linearGradient>
<linearGradient id="paint28_linear_1147_10151" x1="106.757" y1="41.1278" x2="105.932" y2="45.494" gradientUnits="userSpaceOnUse">
<stop stop-color="#051C2C"/>
<stop offset="1" stop-color="#051C2C" stop-opacity="0.8"/>
</linearGradient>
<linearGradient id="paint29_linear_1147_10151" x1="60.9069" y1="13.5693" x2="24.2771" y2="47.9676" gradientUnits="userSpaceOnUse">
<stop stop-color="#051C2C"/>
<stop offset="1" stop-color="#051C2C" stop-opacity="0.8"/>
</linearGradient>
<linearGradient id="paint30_linear_1147_10151" x1="51.9979" y1="16.8482" x2="51.2389" y2="20.8892" gradientUnits="userSpaceOnUse">
<stop stop-color="#051C2C"/>
<stop offset="1" stop-color="#051C2C" stop-opacity="0.8"/>
</linearGradient>
<linearGradient id="paint31_linear_1147_10151" x1="62.2034" y1="9.70578" x2="61.6938" y2="13.8263" gradientUnits="userSpaceOnUse">
<stop stop-color="#051C2C"/>
<stop offset="1" stop-color="#051C2C" stop-opacity="0.8"/>
</linearGradient>
<linearGradient id="paint32_linear_1147_10151" x1="62.2034" y1="23.9921" x2="61.6938" y2="28.1126" gradientUnits="userSpaceOnUse">
<stop stop-color="#051C2C"/>
<stop offset="1" stop-color="#051C2C" stop-opacity="0.8"/>
</linearGradient>
<linearGradient id="paint33_linear_1147_10151" x1="33.347" y1="33.9616" x2="32.2008" y2="34.1069" gradientUnits="userSpaceOnUse">
<stop stop-color="#051C2C"/>
<stop offset="1" stop-color="#051C2C" stop-opacity="0.8"/>
</linearGradient>
<linearGradient id="paint34_linear_1147_10151" x1="46.4849" y1="33.9616" x2="45.3387" y2="34.1069" gradientUnits="userSpaceOnUse">
<stop stop-color="#051C2C"/>
<stop offset="1" stop-color="#051C2C" stop-opacity="0.8"/>
</linearGradient>
<linearGradient id="paint35_linear_1147_10151" x1="35.78" y1="33.9616" x2="34.012" y2="34.3155" gradientUnits="userSpaceOnUse">
<stop stop-color="#051C2C"/>
<stop offset="1" stop-color="#051C2C" stop-opacity="0.8"/>
</linearGradient>
<linearGradient id="paint36_linear_1147_10151" x1="37.5432" y1="33.9616" x2="36.6322" y2="34.0529" gradientUnits="userSpaceOnUse">
<stop stop-color="#051C2C"/>
<stop offset="1" stop-color="#051C2C" stop-opacity="0.8"/>
</linearGradient>
<linearGradient id="paint37_linear_1147_10151" x1="47.8714" y1="33.9616" x2="46.9604" y2="34.0529" gradientUnits="userSpaceOnUse">
<stop stop-color="#051C2C"/>
<stop offset="1" stop-color="#051C2C" stop-opacity="0.8"/>
</linearGradient>
<linearGradient id="paint38_linear_1147_10151" x1="49.6218" y1="33.9616" x2="48.7108" y2="34.0529" gradientUnits="userSpaceOnUse">
<stop stop-color="#051C2C"/>
<stop offset="1" stop-color="#051C2C" stop-opacity="0.8"/>
</linearGradient>
<linearGradient id="paint39_linear_1147_10151" x1="38.5488" y1="33.9616" x2="38.0898" y2="33.9846" gradientUnits="userSpaceOnUse">
<stop stop-color="#051C2C"/>
<stop offset="1" stop-color="#051C2C" stop-opacity="0.8"/>
</linearGradient>
<linearGradient id="paint40_linear_1147_10151" x1="50.6241" y1="33.9616" x2="50.1651" y2="33.9846" gradientUnits="userSpaceOnUse">
<stop stop-color="#051C2C"/>
<stop offset="1" stop-color="#051C2C" stop-opacity="0.8"/>
</linearGradient>
<linearGradient id="paint41_linear_1147_10151" x1="42.9631" y1="33.9616" x2="42.5042" y2="33.9846" gradientUnits="userSpaceOnUse">
<stop stop-color="#051C2C"/>
<stop offset="1" stop-color="#051C2C" stop-opacity="0.8"/>
</linearGradient>
<linearGradient id="paint42_linear_1147_10151" x1="42.0332" y1="33.9616" x2="41.5743" y2="33.9846" gradientUnits="userSpaceOnUse">
<stop stop-color="#051C2C"/>
<stop offset="1" stop-color="#051C2C" stop-opacity="0.8"/>
</linearGradient>
<linearGradient id="paint43_linear_1147_10151" x1="40.8222" y1="33.9616" x2="38.8357" y2="34.4135" gradientUnits="userSpaceOnUse">
<stop stop-color="#051C2C"/>
<stop offset="1" stop-color="#051C2C" stop-opacity="0.8"/>
</linearGradient>
<linearGradient id="paint44_linear_1147_10151" x1="44.5556" y1="33.9616" x2="43.4239" y2="34.1032" gradientUnits="userSpaceOnUse">
<stop stop-color="#051C2C"/>
<stop offset="1" stop-color="#051C2C" stop-opacity="0.8"/>
</linearGradient>
<linearGradient id="paint45_linear_1147_10151" x1="52.1458" y1="33.9616" x2="50.9996" y2="34.1069" gradientUnits="userSpaceOnUse">
<stop stop-color="#051C2C"/>
<stop offset="1" stop-color="#051C2C" stop-opacity="0.8"/>
</linearGradient>
<linearGradient id="paint46_linear_1147_10151" x1="65.2809" y1="33.9616" x2="64.1347" y2="34.1069" gradientUnits="userSpaceOnUse">
<stop stop-color="#051C2C"/>
<stop offset="1" stop-color="#051C2C" stop-opacity="0.8"/>
</linearGradient>
<linearGradient id="paint47_linear_1147_10151" x1="53.0944" y1="33.9616" x2="52.649" y2="33.9833" gradientUnits="userSpaceOnUse">
<stop stop-color="#051C2C"/>
<stop offset="1" stop-color="#051C2C" stop-opacity="0.8"/>
</linearGradient>
<linearGradient id="paint48_linear_1147_10151" x1="54.0088" y1="33.9616" x2="53.5634" y2="33.9833" gradientUnits="userSpaceOnUse">
<stop stop-color="#051C2C"/>
<stop offset="1" stop-color="#051C2C" stop-opacity="0.8"/>
</linearGradient>
<linearGradient id="paint49_linear_1147_10151" x1="54.8678" y1="33.9616" x2="54.4224" y2="33.9833" gradientUnits="userSpaceOnUse">
<stop stop-color="#051C2C"/>
<stop offset="1" stop-color="#051C2C" stop-opacity="0.8"/>
</linearGradient>
<linearGradient id="paint50_linear_1147_10151" x1="56.3418" y1="33.9616" x2="55.4308" y2="34.0529" gradientUnits="userSpaceOnUse">
<stop stop-color="#051C2C"/>
<stop offset="1" stop-color="#051C2C" stop-opacity="0.8"/>
</linearGradient>
<linearGradient id="paint51_linear_1147_10151" x1="66.6742" y1="33.9616" x2="65.7631" y2="34.0529" gradientUnits="userSpaceOnUse">
<stop stop-color="#051C2C"/>
<stop offset="1" stop-color="#051C2C" stop-opacity="0.8"/>
</linearGradient>
<linearGradient id="paint52_linear_1147_10151" x1="68.4214" y1="33.9616" x2="67.5104" y2="34.0529" gradientUnits="userSpaceOnUse">
<stop stop-color="#051C2C"/>
<stop offset="1" stop-color="#051C2C" stop-opacity="0.8"/>
</linearGradient>
<linearGradient id="paint53_linear_1147_10151" x1="57.3493" y1="33.9616" x2="56.8904" y2="33.9846" gradientUnits="userSpaceOnUse">
<stop stop-color="#051C2C"/>
<stop offset="1" stop-color="#051C2C" stop-opacity="0.8"/>
</linearGradient>
<linearGradient id="paint54_linear_1147_10151" x1="69.4301" y1="33.9616" x2="68.9712" y2="33.9846" gradientUnits="userSpaceOnUse">
<stop stop-color="#051C2C"/>
<stop offset="1" stop-color="#051C2C" stop-opacity="0.8"/>
</linearGradient>
<linearGradient id="paint55_linear_1147_10151" x1="61.7635" y1="33.9616" x2="61.3046" y2="33.9846" gradientUnits="userSpaceOnUse">
<stop stop-color="#051C2C"/>
<stop offset="1" stop-color="#051C2C" stop-opacity="0.8"/>
</linearGradient>
<linearGradient id="paint56_linear_1147_10151" x1="60.8299" y1="33.9616" x2="60.371" y2="33.9846" gradientUnits="userSpaceOnUse">
<stop stop-color="#051C2C"/>
<stop offset="1" stop-color="#051C2C" stop-opacity="0.8"/>
</linearGradient>
<linearGradient id="paint57_linear_1147_10151" x1="59.6199" y1="33.9616" x2="57.6333" y2="34.4135" gradientUnits="userSpaceOnUse">
<stop stop-color="#051C2C"/>
<stop offset="1" stop-color="#051C2C" stop-opacity="0.8"/>
</linearGradient>
<linearGradient id="paint58_linear_1147_10151" x1="63.3535" y1="33.9616" x2="62.2218" y2="34.1032" gradientUnits="userSpaceOnUse">
<stop stop-color="#051C2C"/>
<stop offset="1" stop-color="#051C2C" stop-opacity="0.8"/>
</linearGradient>
</defs>
</svg>
