<svg width="83" height="52" viewBox="0 0 83 52" fill="none" xmlns="http://www.w3.org/2000/svg">
<rect width="83" height="52" rx="4.41369" fill="white"/>
<path d="M6.95433 33.8748C6.95433 29.3547 10.6186 25.6904 15.1387 25.6904H23.6048C28.1249 25.6904 31.7891 29.3547 31.7891 33.8748V42.4844H6.95433V33.8748Z" fill="#00C4B3"/>
<ellipse cx="19.8689" cy="15.8117" rx="6.95375" ry="6.91518" fill="#00C4B3"/>
<rect x="35.7627" y="17.7849" width="26.8216" height="2.96365" rx="1.48182" fill="#051C2C"/>
<rect x="35.7627" y="9.88269" width="40.7291" height="2.96365" rx="1.48182" fill="#051C2C"/>
<rect x="35.7627" y="25.6888" width="40.7291" height="2.96365" rx="1.48182" fill="#051C2C"/>
<path d="M37.1675 35.6959H35.7652V42.2028H37.1675V35.6959Z" fill="#051C2C"/>
<path d="M51.7068 35.6959H50.3045V42.2028H51.7068V35.6959Z" fill="#051C2C"/>
<path d="M40.0126 35.6959H37.7985V42.2028H40.0126V35.6959Z" fill="#051C2C"/>
<path d="M41.756 35.6959H40.648V42.2028H41.756V35.6959Z" fill="#051C2C"/>
<path d="M53.1859 35.6959H52.078V42.2028H53.1859V35.6959Z" fill="#051C2C"/>
<path d="M55.123 35.6959H54.0151V42.2028H55.123V35.6959Z" fill="#051C2C"/>
<path d="M42.7647 35.6959H42.2108V42.2028H42.7647V35.6959Z" fill="#051C2C"/>
<path d="M56.1281 35.6959H55.5741V42.2028H56.1281V35.6959Z" fill="#051C2C"/>
<path d="M47.65 35.6959H47.096V42.2028H47.65V35.6959Z" fill="#051C2C"/>
<path d="M46.6209 35.6959H46.0669V42.2028H46.6209V35.6959Z" fill="#051C2C"/>
<path d="M45.6493 35.6959H43.1336V42.2028H45.6493V35.6959Z" fill="#051C2C"/>
<path d="M49.5682 35.6959H48.1842V42.2028H49.5682V35.6959Z" fill="#051C2C"/>
<path d="M57.9716 35.6959H56.5693V42.2028H57.9716V35.6959Z" fill="#051C2C"/>
<path d="M72.5077 35.6959H71.1054V42.2028H72.5077V35.6959Z" fill="#051C2C"/>
<path d="M58.8588 35.6959H58.3213V42.2028H58.8588V35.6959Z" fill="#051C2C"/>
<path d="M59.8707 35.6959H59.3332V42.2028H59.8707V35.6959Z" fill="#051C2C"/>
<path d="M60.8213 35.6959H60.2838V42.2028H60.8213V35.6959Z" fill="#051C2C"/>
<path d="M62.5598 35.6959H61.4518V42.2028H62.5598V35.6959Z" fill="#051C2C"/>
<path d="M73.9943 35.6959H72.8863V42.2028H73.9943V35.6959Z" fill="#051C2C"/>
<path d="M75.9279 35.6959H74.8199V42.2028H75.9279V35.6959Z" fill="#051C2C"/>
<path d="M63.5707 35.6959H63.0167V42.2028H63.5707V35.6959Z" fill="#051C2C"/>
<path d="M76.9401 35.6959H76.3861V42.2028H76.9401V35.6959Z" fill="#051C2C"/>
<path d="M68.4557 35.6959H67.9017V42.2028H68.4557V35.6959Z" fill="#051C2C"/>
<path d="M67.4225 35.6959H66.8686V42.2028H67.4225V35.6959Z" fill="#051C2C"/>
<path d="M66.4521 35.6959H63.9363V42.2028H66.4521V35.6959Z" fill="#051C2C"/>
<path d="M70.3713 35.6959H68.9872V42.2028H70.3713V35.6959Z" fill="#051C2C"/>
</svg>
