<svg width="71" height="65" viewBox="0 0 71 65" fill="none" xmlns="http://www.w3.org/2000/svg">
<path d="M35.4996 9.35907C48.1543 9.35907 58.4132 19.6177 58.4132 32.2727C58.4132 44.9274 48.1543 55.1863 35.4996 55.1863C22.8446 55.1863 12.5859 44.9274 12.5859 32.2727C12.5859 19.6177 22.8446 9.35907 35.4996 9.35907Z" fill="#00C4B3"/>
<path d="M28.29 23.8418C29.872 23.8418 31.1542 25.124 31.1542 26.706C31.1542 28.288 29.872 29.5702 28.29 29.5702C26.708 29.5702 25.4258 28.288 25.4258 26.706C25.4258 25.124 26.708 23.8418 28.29 23.8418Z" fill="white"/>
<path d="M42.6123 23.8418C44.1942 23.8418 45.4765 25.124 45.4765 26.706C45.4765 28.288 44.1942 29.5702 42.6123 29.5702C41.0303 29.5702 39.748 28.288 39.748 26.706C39.748 25.124 41.0303 23.8418 42.6123 23.8418Z" fill="white"/>
<path d="M46.7394 37.0092C44.2618 40.8061 40.0782 43.0717 35.5499 43.0717C31.0216 43.0717 26.8389 40.8061 24.3623 37.0092" stroke="white" stroke-width="3" stroke-miterlimit="10" stroke-linecap="round"/>
<path d="M1.5 11.2955C1.5 5.88535 5.88535 1.5 11.2955 1.5H12.9091C12.9719 1.5 13.0227 1.55086 13.0227 1.61364C13.0227 1.67641 12.9719 1.72727 12.9091 1.72727H11.2955C6.01119 1.72727 1.72727 6.01124 1.72727 11.2955V12.9091C1.72727 12.9719 1.67641 13.0227 1.61364 13.0227C1.55086 13.0227 1.5 12.9719 1.5 12.9091V11.2955Z" fill="#00C4B3" stroke="#00C4B3" stroke-width="3"/>
<path d="M57.9775 1.61364C57.9775 1.55086 58.0284 1.5 58.0912 1.5H59.7048C65.1149 1.5 69.5003 5.88535 69.5003 11.2955V12.9091C69.5003 12.9719 69.4494 13.0227 69.3866 13.0227C69.3239 13.0227 69.273 12.9719 69.273 12.9091V11.2955C69.273 6.01119 64.989 1.72727 59.7048 1.72727H58.0912C58.0284 1.72727 57.9775 1.67641 57.9775 1.61364Z" fill="#00C4B3" stroke="#00C4B3" stroke-width="3"/>
<path d="M1.61364 51.5228C1.67641 51.5228 1.72727 51.5736 1.72727 51.6364V53.25C1.72727 58.5343 6.01124 62.8182 11.2955 62.8182H12.9091C12.9719 62.8182 13.0227 62.8691 13.0227 62.9319C13.0227 62.9946 12.9719 63.0455 12.9091 63.0455H11.2955C5.88535 63.0455 1.5 58.6601 1.5 53.25V51.6364C1.5 51.5736 1.55086 51.5228 1.61364 51.5228Z" fill="#00C4B3" stroke="#00C4B3" stroke-width="3"/>
<path d="M69.3866 51.5228C69.4494 51.5228 69.5003 51.5736 69.5003 51.6364V53.25C69.5003 58.6601 65.1149 63.0455 59.7048 63.0455H58.0912C58.0284 63.0455 57.9775 62.9946 57.9775 62.9319C57.9775 62.8691 58.0284 62.8182 58.0912 62.8182H59.7048C64.9891 62.8182 69.273 58.5342 69.273 53.25V51.6364C69.273 51.5736 69.3239 51.5228 69.3866 51.5228Z" fill="#00C4B3" stroke="#00C4B3" stroke-width="3"/>
</svg>
